<?xml version="1.0" standalone="no"?>
<!DOCTYPE svg PUBLIC "-//W3C//DTD SVG 20010904//EN"
 "http://www.w3.org/TR/2001/REC-SVG-20010904/DTD/svg10.dtd">
<svg version="1.0" xmlns="http://www.w3.org/2000/svg"
 width="112.000000pt" height="112.000000pt" viewBox="0 0 112.000000 112.000000"
 preserveAspectRatio="xMidYMid meet">
<metadata>
Created by potrace 1.11, written by Peter Selinger 2001-2013
</metadata>
<g transform="translate(0.000000,112.000000) scale(0.100000,-0.100000)"
fill="#000000" stroke="none">
<path d="M275 1083 c-11 -65 -15 -71 -47 -82 -74 -26 -140 -101 -132 -150 6
-30 30 -52 96 -86 27 -14 50 -34 54 -47 4 -13 20 -38 35 -56 16 -18 30 -43 30
-55 4 -65 -2 -93 -23 -110 -36 -30 -150 -93 -190 -106 l-38 -13 0 -189 0 -189
491 0 491 0 -6 56 c-7 67 -38 142 -63 151 -10 4 -20 10 -23 13 -3 4 -43 27
-89 51 -47 24 -111 68 -143 98 l-59 54 36 35 c20 20 42 49 49 66 13 32 44 179
49 230 2 24 11 34 50 55 64 35 157 118 157 140 0 27 -17 37 -90 53 -63 14 -66
15 -91 63 l-25 50 -257 3 -256 2 -6 -37z"/>
</g>
</svg>
